<?xml version="1.0" encoding="UTF-8"?>
<svg version="1.1" xmlns="http://www.w3.org/2000/svg" width="183" height="26">
<path d="M0 0 C0.68578125 -0.020625 1.3715625 -0.04125 2.078125 -0.0625 C7.16582715 -0.10209301 7.16582715 -0.10209301 9.6015625 1.765625 C9.93929687 2.25546875 10.27703125 2.7453125 10.625 3.25 C11.285 2.26 11.945 1.27 12.625 0.25 C14.59619141 -0.09057617 14.59619141 -0.09057617 16.9765625 -0.04296875 C17.82734375 -0.03330078 18.678125 -0.02363281 19.5546875 -0.01367188 C20.44414063 0.01146484 21.33359375 0.03660156 22.25 0.0625 C23.59578125 0.08280273 23.59578125 0.08280273 24.96875 0.10351562 C27.18809789 0.13893075 29.40625188 0.18831539 31.625 0.25 C31.295 2.56 30.965 4.87 30.625 7.25 C26.665 7.25 22.705 7.25 18.625 7.25 C18.625 7.91 18.625 8.57 18.625 9.25 C21.595 9.25 24.565 9.25 27.625 9.25 C27.295 11.56 26.965 13.87 26.625 16.25 C23.325 16.25 20.025 16.25 16.625 16.25 C16.625 16.91 16.625 17.57 16.625 18.25 C20.255 18.25 23.885 18.25 27.625 18.25 C27.295 20.23 26.965 22.21 26.625 24.25 C20.025 24.25 13.425 24.25 6.625 24.25 C7.285 20.62 7.945 16.99 8.625 13.25 C7.92375 13.745 7.2225 14.24 6.5 14.75 C3.25380281 16.4436681 1.23159844 16.50162315 -2.375 16.25 C-3.365 18.89 -4.355 21.53 -5.375 24.25 C-8.015 24.25 -10.655 24.25 -13.375 24.25 C-12.56851686 20.43620121 -11.75381226 16.624206 -10.9375 12.8125 C-10.70740234 11.72388672 -10.47730469 10.63527344 -10.24023438 9.51367188 C-10.01787109 8.47919922 -9.79550781 7.44472656 -9.56640625 6.37890625 C-9.36217041 5.42056885 -9.15793457 4.46223145 -8.94750977 3.47485352 C-7.75090078 -1.17533739 -4.09842523 0.03047156 0 0 Z M-1.375 7.25 C-1.705 8.24 -2.035 9.23 -2.375 10.25 C-0.39963255 9.90213292 -0.39963255 9.90213292 1.625 9.25 C1.955 8.59 2.285 7.93 2.625 7.25 C1.305 7.25 -0.015 7.25 -1.375 7.25 Z M9.625 9.25 C10.625 11.25 10.625 11.25 10.625 11.25 Z " fill="#AF1F64" transform="translate(57.375,-0.25)"/>
<path d="M0 0 C1.134375 0.020625 2.26875 0.04125 3.4375 0.0625 C5.02940467 3.24630933 3.72499598 6.34326324 3 9.6875 C2.85240234 10.39390625 2.70480469 11.1003125 2.55273438 11.828125 C2.18700507 13.57418749 1.81302879 15.31851884 1.4375 17.0625 C3.0875 16.7325 4.7375 16.4025 6.4375 16.0625 C8.24054155 10.76155784 9.94473624 5.45941512 11.4375 0.0625 C14.0775 0.0625 16.7175 0.0625 19.4375 0.0625 C17.77685018 17.33325812 17.77685018 17.33325812 13.1875 22.6875 C7.18113931 25.69068034 2.02316533 26.29357598 -4.5625 26.0625 C-4.5625 25.4025 -4.5625 24.7425 -4.5625 24.0625 C-5.5525 23.4025 -6.5425 22.7425 -7.5625 22.0625 C-8.27246885 14.72615519 -6.75560116 8.06224257 -4.5625 1.0625 C-3.5625 0.0625 -3.5625 0.0625 0 0 Z " fill="#B01E65" transform="translate(28.5625,-0.0625)"/>
<path d="M0 0 C1.06863281 0.01804688 2.13726563 0.03609375 3.23828125 0.0546875 C4.04652344 0.07789062 4.85476562 0.10109375 5.6875 0.125 C5.3575 2.435 5.0275 4.745 4.6875 7.125 C3.635625 7.063125 2.58375 7.00125 1.5 6.9375 C-2.73375583 7.1457175 -5.29992165 8.11242165 -8.3125 11.125 C-8.47916667 13.625 -8.47916667 13.625 -8.3125 16.125 C-7.27843327 17.38449049 -7.27843327 17.38449049 -5.02734375 17.22265625 C-4.11082031 17.21105469 -3.19429687 17.19945313 -2.25 17.1875 C-1.33089844 17.17847656 -0.41179688 17.16945313 0.53515625 17.16015625 C1.24542969 17.14855469 1.95570312 17.13695313 2.6875 17.125 C1.8125 23 1.8125 23 0.6875 24.125 C2.3375 24.455 3.9875 24.785 5.6875 25.125 C5.6875 25.455 5.6875 25.785 5.6875 26.125 C-9.47057709 26.80711347 -9.47057709 26.80711347 -15.9921875 21.84765625 C-18.32471628 18.80432728 -17.89490507 15.62641644 -17.796875 11.92578125 C-17.0339618 7.51442025 -14.86554427 4.76858826 -11.3125 2.125 C-7.44127422 0.15669095 -4.31292567 -0.09478958 0 0 Z " fill="#B11F65" transform="translate(17.3125,-0.12499999999999999)"/>
<path d="M0 0 C0.33 0 0.66 0 1 0 C1.027193 1.58323688 1.04648306 3.16661062 1.0625 4.75 C1.07410156 5.63171875 1.08570313 6.5134375 1.09765625 7.421875 C1 10 1 10 0 14 C-4.95 14 -9.9 14 -15 14 C-15.33 14.66 -15.66 15.32 -16 16 C-16.99 16 -17.98 16 -19 16 C-19 15.34 -19 14.68 -19 14 C-22.63 14 -26.26 14 -30 14 C-30 14.66 -30 15.32 -30 16 C-30.66 16 -31.32 16 -32 16 C-32 15.34 -32 14.68 -32 14 C-32.66 14 -33.32 14 -34 14 C-34 13.01 -34 12.02 -34 11 C-34.33 11.99 -34.66 12.98 -35 14 C-35.66 14 -36.32 14 -37 14 C-37 13.01 -37 12.02 -37 11 C-37.33 11.99 -37.66 12.98 -38 14 C-40.31 14 -42.62 14 -45 14 C-44.67 11.36 -44.34 8.72 -44 6 C-42.35 6 -40.7 6 -39 6 C-39 6.66 -39 7.32 -39 8 C-34.71 8 -30.42 8 -26 8 C-25.67 7.01 -25.34 6.02 -25 5 C-24.34 5 -23.68 5 -23 5 C-23 5.99 -23 6.98 -23 8 C-22.05125 8 -21.1025 8 -20.125 8 C-13.41666667 8 -6.70833333 8 0 8 C0 5.36 0 2.72 0 0 Z M-29 10 C-29.33 10.66 -29.66 11.32 -30 12 C-29.34 12 -28.68 12 -28 12 C-28.33 11.34 -28.66 10.68 -29 10 Z M-21 10 C-21.33 10.66 -21.66 11.32 -22 12 C-21.34 12 -20.68 12 -20 12 C-20.33 11.34 -20.66 10.68 -21 10 Z M-43 11 C-39 12 -39 12 -39 12 Z " fill="#060103" transform="translate(182,10)"/>
<path d="M0 0 C2.61580479 0.3269756 4.64078137 0.82039068 7 2 C9.55157655 2.0716735 12.07472971 2.09308442 14.625 2.0625 C15.33140625 2.05798828 16.0378125 2.05347656 16.765625 2.04882812 C18.51045275 2.03703875 20.255237 2.01910324 22 2 C22.33 1.34 22.66 0.68 23 0 C24.32 0 25.64 0 27 0 C27.66 0.66 28.32 1.32 29 2 C31.32275177 2.40047444 33.65739357 2.7397104 36 3 C36 4.98 36 6.96 36 9 C28.08 9 20.16 9 12 9 C11.67 8.34 11.34 7.68 11 7 C10.67 7.66 10.34 8.32 10 9 C8.20866022 9.05391993 6.41686101 9.09275571 4.625 9.125 C3.62726563 9.14820313 2.62953125 9.17140625 1.6015625 9.1953125 C-1 9 -1 9 -3 7 C-2.67028521 3.70285207 -2.3773161 2.3773161 0 0 Z M0 3 C-0.33 3.99 -0.66 4.98 -1 6 C0.65 6 2.3 6 4 6 C4 5.01 4 4.02 4 3 C2.68 3 1.36 3 0 3 Z M26 3 C27 5 27 5 27 5 Z " fill="#000000" transform="translate(104,5)"/>
<path d="M0 0 C0.66 0 1.32 0 2 0 C2 0.99 2 1.98 2 3 C2.99 3 3.98 3 5 3 C5.33 2.01 5.66 1.02 6 0 C7.32 0.33 8.64 0.66 10 1 C10 1.66 10 2.32 10 3 C11.32 3 12.64 3 14 3 C13.67 3.99 13.34 4.98 13 6 C13.33 6.99 13.66 7.98 14 9 C7.73 9 1.46 9 -5 9 C-5.33 8.01 -5.66 7.02 -6 6 C-6.99 6 -7.98 6 -9 6 C-9 6.99 -9 7.98 -9 9 C-9.66 9 -10.32 9 -11 9 C-11.125 3.25 -11.125 3.25 -10 1 C-8.35 1 -6.7 1 -5 1 C-5 1.66 -5 2.32 -5 3 C-4.34 3 -3.68 3 -3 3 C-3 3.99 -3 4.98 -3 6 C-2.67 5.01 -2.34 4.02 -2 3 C-1.34 3 -0.68 3 0 3 C0 2.01 0 1.02 0 0 Z M2 5 C1.67 5.66 1.34 6.32 1 7 C1.66 7 2.32 7 3 7 C2.67 6.34 2.34 5.68 2 5 Z " fill="#000000" transform="translate(121,15)"/>
<path d="M0 0 C0.33 0 0.66 0 1 0 C1 1.98 1 3.96 1 6 C1.66 6 2.32 6 3 6 C3.33 4.02 3.66 2.04 4 0 C4.66 0 5.32 0 6 0 C6 0.99 6 1.98 6 3 C6.99 2.67 7.98 2.34 9 2 C9.33 2.33 9.66 2.66 10 3 C10.33 2.01 10.66 1.02 11 0 C11.66 0 12.32 0 13 0 C13 0.99 13 1.98 13 3 C13.99 2.67 14.98 2.34 16 2 C18.3406065 2.27769908 20.67624308 2.60539977 23 3 C23 4.98 23 6.96 23 9 C21.68 9 20.36 9 19 9 C17.49608785 9.01093571 15.9921816 9.02270387 14.48828125 9.03515625 C12.76302165 9.04442472 11.0377612 9.05353428 9.3125 9.0625 C8.43271484 9.07087891 7.55292969 9.07925781 6.64648438 9.08789062 C5.39254883 9.09272461 5.39254883 9.09272461 4.11328125 9.09765625 C2.96533081 9.10551147 2.96533081 9.10551147 1.79418945 9.11352539 C0 9 0 9 -1 8 C-1.125 4.5 -1.125 4.5 -1 1 C-0.67 0.67 -0.34 0.34 0 0 Z " fill="#000000" transform="translate(144,5)"/>
<path d="M0 0 C0.99 0 1.98 0 3 0 C2.34 2.97 1.68 5.94 1 9 C-1.64 9 -4.28 9 -7 9 C-7.042721 7.33388095 -7.04063832 5.66617115 -7 4 C-6 3 -6 3 -2.9375 2.9375 C-1.4834375 2.9684375 -1.4834375 2.9684375 0 3 C0 2.01 0 1.02 0 0 Z " fill="#000000" transform="translate(106,15)"/>
<path d="M0 0 C0.66 0 1.32 0 2 0 C1.52113751 5.55480488 0.70148354 10.96490569 -0.375 16.4375 C-0.60960938 17.63246094 -0.84421875 18.82742187 -1.0859375 20.05859375 C-2 23 -2 23 -5 25 C-3.70834692 16.56626517 -2.00616752 8.2921591 0 0 Z " fill="#000000" transform="translate(95,0)"/>
<path d="M0 0 C6.27 0 12.54 0 19 0 C19 0.33 19 0.66 19 1 C12.73 1 6.46 1 0 1 C0 0.67 0 0.34 0 0 Z " fill="#B02669" transform="translate(70,25)"/>
<path d="M0 0 C5.28 0 10.56 0 16 0 C16 0.33 16 0.66 16 1 C10.72 1 5.44 1 0 1 C0 0.67 0 0.34 0 0 Z " fill="#AB2664" transform="translate(49,25)"/>
<path d="M0 0 C2.64 0 5.28 0 8 0 C8 0.33 8 0.66 8 1 C5.36 1 2.72 1 0 1 C0 0.67 0 0.34 0 0 Z " fill="#B32765" transform="translate(40,25)"/>
<path d="M0 0 C3 1 3 1 3 1 Z " fill="#000000" transform="translate(163,0)"/>
<path d="M0 0 C2 1 2 1 2 1 Z " fill="#000000" transform="translate(95,25)"/>
<path d="M0 0 C2 1 2 1 2 1 Z " fill="#000000" transform="translate(150,0)"/>
</svg>
