<svg width="44" height="38" viewBox="0 0 44 38" fill="none" xmlns="http://www.w3.org/2000/svg">
<path d="M13.7849 13.6215C13.7849 12.0653 14.4067 10.5728 15.5135 9.47245C16.6204 8.37206 18.1216 7.75387 19.6869 7.75387C21.6435 7.75387 23.52 8.52661 24.9036 9.9021C26.2872 11.2776 27.0644 13.1431 27.0644 15.0884C27.0644 17.4227 26.1317 19.6613 24.4714 21.3119C22.8112 22.9625 20.5594 23.8898 18.2114 23.8898C17.8201 23.8898 17.4448 24.0443 17.1681 24.3194C16.8913 24.5945 16.7359 24.9676 16.7359 25.3567C16.7359 25.7457 16.8913 26.1188 17.1681 26.3939C17.4448 26.669 17.8201 26.8236 18.2114 26.8236C21.342 26.8236 24.3444 25.5872 26.5581 23.3864C28.7718 21.1856 30.0154 18.2007 30.0154 15.0884C30.0154 9.41636 25.3922 4.82007 19.6869 4.82007C17.3389 4.82007 15.0871 5.74736 13.4269 7.39794C11.7666 9.04852 10.8339 11.2872 10.8339 13.6215C10.8339 15.5667 11.6111 17.4323 12.9947 18.8078C14.3782 20.1832 16.2548 20.956 18.2114 20.956C19.7767 20.956 21.2779 20.3378 22.3848 19.2374C23.4916 18.137 24.1134 16.6446 24.1134 15.0884C24.1134 13.9212 23.6471 12.8019 22.8169 11.9766C21.9868 11.1513 20.8609 10.6877 19.6869 10.6877C18.9042 10.6877 18.1536 10.9968 17.6002 11.547C17.0468 12.0972 16.7359 12.8434 16.7359 13.6215C16.7359 14.0105 16.8913 14.3836 17.1681 14.6587C17.4448 14.9338 17.8201 15.0884 18.2114 15.0884C18.6027 15.0884 18.978 14.9338 19.2547 14.6587C19.5314 14.3836 19.6869 14.0105 19.6869 13.6215C20.0782 13.6215 20.4535 13.776 20.7302 14.0511C21.007 14.3262 21.1624 14.6993 21.1624 15.0884C21.1624 15.8665 20.8515 16.6127 20.2981 17.1629C19.7447 17.7131 18.9941 18.0222 18.2114 18.0222C17.0374 18.0222 15.9115 17.5585 15.0814 16.7332C14.2512 15.908 13.7849 14.7886 13.7849 13.6215Z" fill="#5783EF"/>
<path d="M31.491 1.95587C31.491 2.4746 31.2837 2.97208 30.9147 3.33888C30.5458 3.70567 30.0454 3.91174 29.5236 3.91174C29.0018 3.91174 28.5014 3.70567 28.1325 3.33888C27.7635 2.97208 27.5563 2.4746 27.5563 1.95587C27.5563 1.43714 27.7635 0.939657 28.1325 0.57286C28.5014 0.206064 29.0018 0 29.5236 0C30.0454 0 30.5458 0.206064 30.9147 0.57286C31.2837 0.939657 31.491 1.43714 31.491 1.95587ZM37.8848 5.8676C37.8848 5.47856 37.7294 5.10545 37.4527 4.83035C37.1759 4.55525 36.8006 4.4007 36.4093 4.4007C36.018 4.4007 35.6427 4.55525 35.366 4.83035C35.0893 5.10545 34.9338 5.47856 34.9338 5.8676V7.33451H33.4583C33.067 7.33451 32.6917 7.48905 32.415 7.76415C32.1382 8.03925 31.9828 8.41236 31.9828 8.80141C31.9828 9.19045 32.1382 9.56357 32.415 9.83866C32.6917 10.1138 33.067 10.2683 33.4583 10.2683H34.9338V11.7352C34.9338 12.1243 35.0893 12.4974 35.366 12.7725C35.6427 13.0476 36.018 13.2021 36.4093 13.2021C36.8006 13.2021 37.1759 13.0476 37.4527 12.7725C37.7294 12.4974 37.8848 12.1243 37.8848 11.7352V10.2683H39.3603C39.7517 10.2683 40.127 10.1138 40.4037 9.83866C40.6804 9.56357 40.8358 9.19045 40.8358 8.80141C40.8358 8.41236 40.6804 8.03925 40.4037 7.76415C40.127 7.48905 39.7517 7.33451 39.3603 7.33451H37.8848V5.8676Z" fill="#DBDDE6"/>
<path d="M16.0788 22.5996C15.5171 23.0401 15.1073 23.6437 14.9065 24.3264C14.7057 25.0091 14.7239 25.737 14.9584 26.409C15.193 27.081 15.6323 27.6636 16.2152 28.076C16.7982 28.4883 17.4959 28.7098 18.2114 28.7097C21.265 28.7097 24.232 27.7011 26.6464 25.8425C29.0607 23.9839 30.7856 21.3805 31.55 18.4414H34.4282C35.6912 18.4414 36.9248 18.813 37.9753 19.5093L42.6379 22.5996C42.8015 22.7054 42.9423 22.8424 43.0522 23.0027C43.1621 23.163 43.2389 23.3434 43.2782 23.5334C43.3176 23.7234 43.3186 23.9193 43.2812 24.1097C43.2439 24.3001 43.1689 24.4813 43.0607 24.6427C42.9525 24.8041 42.8131 24.9426 42.6507 25.0501C42.4882 25.1576 42.306 25.232 42.1144 25.269C41.9229 25.306 41.7258 25.3048 41.5347 25.2656C41.3436 25.2264 41.1623 25.1499 41.0011 25.0405L37.393 22.6485V31.6435C37.393 32.4783 37.2276 33.3049 36.9063 34.0761C36.585 34.8473 36.114 35.548 35.5203 36.1383C34.9265 36.7286 34.2217 37.1968 33.4459 37.5162C32.6702 37.8357 31.8388 38.0001 30.9991 38.0001H12.3094C11.4697 38.0001 10.6383 37.8357 9.86256 37.5162C9.08682 37.1968 8.38197 36.7286 7.78824 36.1383C7.19452 35.548 6.72355 34.8473 6.40223 34.0761C6.08091 33.3049 5.91552 32.4783 5.91552 31.6435V22.6485L2.30742 25.0405C2.14626 25.1499 1.96488 25.2264 1.77378 25.2656C1.58267 25.3048 1.38564 25.306 1.19409 25.269C1.00254 25.232 0.820279 25.1576 0.657849 25.0501C0.495419 24.9426 0.35605 24.8041 0.247811 24.6427C0.139571 24.4813 0.0646112 24.3001 0.0272695 24.1097C-0.0100722 23.9193 -0.00905372 23.7234 0.030266 23.5334C0.0695858 23.3434 0.146426 23.163 0.256338 23.0027C0.36625 22.8424 0.507051 22.7054 0.67059 22.5996L5.33319 19.5093C6.38358 18.813 7.61782 18.4414 8.88031 18.4414H10.2633C10.9106 19.4802 11.7572 20.3821 12.7551 21.0956C13.7529 21.809 14.8823 22.3201 16.0788 22.5996Z" fill="#34519A"/>
</svg>
