<svg width="253" height="36" viewBox="0 0 253 36" fill="none" xmlns="http://www.w3.org/2000/svg">
<path d="M0.332886 0.785217L13.8904 20.4874V35.1756H24.4887V20.4874L37.9873 0.785217H26.0618L19.1601 12.7108L12.1896 0.785217H0.332886Z" fill="#3A3C42"/>
<path d="M53.1078 0.303345C42.7553 0.303345 35.0966 6.20221 35.0966 17.7247C35.0966 29.2471 41.3101 35.6965 53.1078 35.6965C64.9056 35.6965 70.5586 29.4634 70.5586 17.0168C70.5586 4.57019 61.2876 0.303345 53.1078 0.303345ZM52.9407 27.8314C48.025 27.8314 45.4492 24.2134 45.4492 17.8131C45.4492 11.4129 48.6345 8.1685 52.9407 8.1685C56.3326 8.1685 60.1963 10.5674 60.1963 17.4985C60.1963 24.4297 57.8466 27.8314 52.9407 27.8314Z" fill="#3A3C42"/>
<path d="M73.2521 0.785217V20.4481C73.2521 28.9621 77.2732 35.6967 89.7984 35.6967C102.324 35.6967 104.044 29.0899 104.044 29.0899L95.1959 23.8793C95.1959 23.8793 93.8392 27.8315 89.7984 27.8315C85.7577 27.8315 83.8996 26.1405 83.8996 20.4874V0.785217H73.2521Z" fill="#3A3C42"/>
<path fill-rule="evenodd" clip-rule="evenodd" d="M219.388 27.3004V34.9197H190.267V0.411377H218.749V8.03074H200.934V13.3201H217.579V20.4282H200.934V27.3004H219.388ZM106.307 23.1222C106.32 24.5644 105.983 25.9883 105.324 27.2711L96.2197 21.9916V0.785223H106.7L119.628 20.0548V0.785223H130.109V35.3034H120.277L106.307 15.7192C106.307 15.7192 106.366 20.4874 106.307 23.1222ZM133.874 0.785223H144.541V35.3034H133.874V0.785223ZM187.377 0.785223H176.71V35.3034H187.377V0.785223ZM159.101 14.1756V8.25712H174.792V0.785223H148.434V35.3034H159.101V21.2444H172.472V14.1756H159.101ZM221.225 0.411377H236.66C249.805 0.411377 253 9.15153 253 17.1248C253 27.6248 248.91 34.9197 237.112 34.9197H221.225V0.411377ZM231.764 27.3299H234.625C237.004 27.3299 242.53 26.5433 242.53 19.4254C242.53 11.5111 240.612 8.16838 234.969 8.16838H231.764V27.3299Z" fill="url(#paint0_linear_125_2526)"/>
<defs>
<linearGradient id="paint0_linear_125_2526" x1="253.738" y1="17.9999" x2="95.9432" y2="17.9999" gradientUnits="userSpaceOnUse">
<stop stop-color="#34519A"/>
<stop offset="1" stop-color="#5884F0"/>
</linearGradient>
</defs>
</svg>
