<svg width="19" height="19" viewBox="0 0 19 19" fill="none" xmlns="http://www.w3.org/2000/svg">
<path d="M17.3611 15.588C16.1684 14.0769 15.3263 13.3077 15.3263 9.14183C15.3263 5.32692 13.4442 3.96779 11.8951 3.30769C11.6894 3.22019 11.4957 3.01923 11.433 2.80048C11.1612 1.84327 10.3995 1 9.38692 1C8.37435 1 7.61213 1.84375 7.3432 2.80144C7.28049 3.0226 7.0868 3.22019 6.88104 3.30769C5.33013 3.96875 3.44991 5.32308 3.44991 9.14183C3.44758 13.3077 2.60548 14.0769 1.41269 15.588C0.918478 16.2139 1.35138 17.1538 2.21578 17.1538H16.5627C17.4225 17.1538 17.8526 16.2111 17.3611 15.588Z" stroke="#757881" stroke-width="2" stroke-linecap="round" stroke-linejoin="round"/>
</svg>
