<svg width="40" height="37" viewBox="0 0 40 37" fill="none" xmlns="http://www.w3.org/2000/svg">
<path fill-rule="evenodd" clip-rule="evenodd" d="M26.3375 24.7228L27.33 23.7369C28.7012 22.3744 30.8363 22.0936 32.5906 23.0469L36.7477 25.3083C39.4183 26.76 40.0081 30.3186 37.9208 32.3928L34.8302 35.466C34.0423 36.2496 33.0672 36.8198 31.9442 36.9243C29.3498 37.1659 24.0108 37.0353 17.712 33.3483L26.3375 24.7228ZM13.4744 11.9337L14.0991 11.3112C15.6378 9.78332 15.7837 7.32823 14.4408 5.53479L11.6984 1.87174C10.0355 -0.348285 6.82519 -0.642112 4.92075 1.25144L1.50365 4.64678C0.561224 5.58703 -0.0699614 6.80152 0.00621608 8.15095C0.147689 10.6322 0.992171 15.1593 4.68351 20.7224L13.4744 11.9337Z" fill="#5783EF"/>
<path d="M17.551 20.6703C11.139 14.2953 13.4591 11.9469 13.4744 11.9316L4.6835 20.7247C6.13522 22.9099 8.02442 25.254 10.4817 27.6982C12.9629 30.1664 15.4006 31.9968 17.712 33.3484L26.3375 24.7251C26.3375 24.7251 23.9825 27.067 17.551 20.6725V20.6703Z" fill="#34519A"/>
</svg>
