<svg width="34" height="31" viewBox="0 0 34 31" fill="none" xmlns="http://www.w3.org/2000/svg">
<path d="M9.15716 21.8642C9.15716 21.8642 6.3658 20.1047 2.99443 17.405C2.82287 17.2675 2.62516 17.1657 2.41308 17.1056C2.201 17.0456 1.97891 17.0285 1.76004 17.0554C1.54117 17.0823 1.33 17.1527 1.13913 17.2623C0.94826 17.3719 0.781594 17.5185 0.649069 17.6934C0.450976 17.9551 0.336933 18.2699 0.321798 18.5969C0.306663 18.9238 0.391137 19.2476 0.564215 19.5263C2.27163 22.2768 5.21717 26.6134 7.49735 29.463C8.57302 30.8072 10.4817 30.9319 11.7369 29.7499C18.9546 22.9543 25.6549 14.3813 33.6746 2.51067C33.8752 2.21886 33.9573 1.86267 33.9044 1.51338C33.8516 1.1641 33.6678 0.847491 33.3897 0.626916C33.1116 0.406342 32.7598 0.298077 32.4047 0.323788C32.0496 0.349499 31.7174 0.50729 31.4746 0.765581C22.5748 10.1136 18.0114 14.5564 9.15716 21.8642Z" fill="#F9FAFC"/>
</svg>
