<svg width="25" height="25" viewBox="0 0 25 25" fill="none" xmlns="http://www.w3.org/2000/svg">
<path fill-rule="evenodd" clip-rule="evenodd" d="M2 10.2C2 5.86335 2 3.69445 3.30222 2.3478C4.60333 1 6.69889 1 10.8889 1H13.1111C17.3011 1 19.3967 1 20.6978 2.3478C22 3.69445 22 5.86335 22 10.2V14.8C22 19.1367 22 21.3055 20.6978 22.6522C19.3967 24 17.3011 24 13.1111 24H10.8889C6.69889 24 4.60333 24 3.30222 22.6522C2 21.3055 2 19.1367 2 14.8V10.2ZM5.33333 12.5C5.33333 10.8739 5.33333 10.0608 5.82222 9.556C6.30889 9.05 7.09444 9.05 8.66667 9.05H15.3333C16.9044 9.05 17.69 9.05 18.1778 9.556C18.6667 10.0608 18.6667 10.8739 18.6667 12.5V17.1C18.6667 18.7261 18.6667 19.5391 18.1778 20.044C17.69 20.55 16.9044 20.55 15.3333 20.55H8.66667C7.09556 20.55 6.31 20.55 5.82222 20.044C5.33333 19.5403 5.33333 18.7272 5.33333 17.1V12.5ZM6.44444 4.7375C6.22343 4.7375 6.01147 4.82837 5.85519 4.99012C5.69891 5.15187 5.61111 5.37125 5.61111 5.6C5.61111 5.82875 5.69891 6.04813 5.85519 6.20988C6.01147 6.37163 6.22343 6.4625 6.44444 6.4625H12C12.221 6.4625 12.433 6.37163 12.5893 6.20988C12.7455 6.04813 12.8333 5.82875 12.8333 5.6C12.8333 5.37125 12.7455 5.15187 12.5893 4.99012C12.433 4.82837 12.221 4.7375 12 4.7375H6.44444Z" fill="#4468C1"/>
</svg>
