<svg width="25" height="25" viewBox="0 0 25 25" fill="none" xmlns="http://www.w3.org/2000/svg">
<path d="M1.35699 10.7435V22.245C1.35699 22.7973 1.80471 23.245 2.357 23.245H7.96361C8.5159 23.245 8.96361 22.7973 8.96361 22.245V16.2858C8.96361 15.7335 9.41133 15.2858 9.96361 15.2858H15.127C15.6793 15.2858 16.127 15.7335 16.127 16.2858V22.245C16.127 22.7973 16.5747 23.245 17.127 23.245H22.643C23.1953 23.245 23.643 22.7973 23.643 22.245V10.7435C23.643 10.0976 23.3311 9.49144 22.8055 9.11602L13.6625 2.5853C12.9671 2.08859 12.0329 2.08859 11.3375 2.5853L2.19452 9.11602C1.66893 9.49144 1.35699 10.0976 1.35699 10.7435Z" fill="#A6A9B4"/>
</svg>
