<svg width="26" height="32" viewBox="0 0 26 32" fill="none" xmlns="http://www.w3.org/2000/svg">
<path d="M18.1344 0H1.55036C1.08864 0 0.714355 0.374286 0.714355 1.10057V31.0859C0.714355 31.2831 1.08864 32 1.55036 32H24.4498C24.9115 32 25.2858 31.2479 25.2858 31.0508V7.416C25.2858 7.01829 25.2326 6.89029 25.1389 6.796L18.4898 0.146857C18.3955 0.0531429 18.2675 0 18.1344 0Z" fill="#E9E9E0"/>
<path d="M24.4498 31.9996H1.55036C1.08864 31.9996 0.714355 31.6253 0.714355 31.1636V22.2853H25.2858V31.1636C25.2858 31.6253 24.9115 31.9996 24.4498 31.9996Z" fill="#FF6D1B"/>
<path d="M18.4285 0.0865479V6.85741H25.1993L18.4285 0.0865479Z" fill="#D9D7CA"/>
<path d="M11.6521 30.2853H10.7144V24.5276H12.3704C12.6149 24.5276 12.8572 24.5664 13.0966 24.6447C13.3361 24.723 13.5509 24.8402 13.7412 24.9962C13.9315 25.1522 14.0852 25.3413 14.2024 25.5624C14.3195 25.7836 14.3784 26.0322 14.3784 26.3087C14.3784 26.6007 14.3286 26.8647 14.2298 27.1019C14.1309 27.339 13.9926 27.5384 13.8155 27.6996C13.6384 27.8607 13.4246 27.9859 13.1749 28.0744C12.9252 28.163 12.6486 28.207 12.3469 28.207H11.6515V30.2853H11.6521ZM11.6521 25.2384V27.5196H12.5115C12.6258 27.5196 12.7389 27.5002 12.8515 27.4607C12.9635 27.4219 13.0664 27.3579 13.1601 27.2693C13.2538 27.1807 13.3292 27.0573 13.3864 26.8984C13.4435 26.7396 13.4721 26.543 13.4721 26.3087C13.4721 26.215 13.4589 26.1064 13.4332 25.9847C13.4069 25.8624 13.3538 25.7453 13.2732 25.6333C13.1921 25.5213 13.0789 25.4276 12.9332 25.3522C12.7875 25.2767 12.5944 25.239 12.3549 25.239H11.6521V25.2384Z" fill="white"/>
<path d="M19.5822 27.3169V29.5432C19.4622 29.6947 19.3285 29.8175 19.1799 29.9141C19.0314 30.0107 18.8754 30.0901 18.7114 30.1524C18.5474 30.2147 18.3776 30.2592 18.2034 30.2855C18.0285 30.3118 17.8559 30.3244 17.6839 30.3244C17.3399 30.3244 17.0239 30.2621 16.7348 30.1369C16.4456 30.0118 16.1931 29.8272 15.9771 29.5821C15.7611 29.3369 15.5914 29.0301 15.4691 28.6604C15.3468 28.2907 15.2856 27.8632 15.2856 27.3792C15.2856 26.8952 15.3468 26.4689 15.4691 26.1021C15.5914 25.7347 15.7605 25.4289 15.9771 25.1844C16.1931 24.9392 16.4468 24.7535 16.7388 24.6255C17.0302 24.4975 17.3456 24.4341 17.6839 24.4341C17.9965 24.4341 18.2879 24.4861 18.5588 24.5901C18.8296 24.6947 19.0714 24.8507 19.2851 25.0587L18.6365 25.6369C18.5114 25.4855 18.3679 25.3764 18.2068 25.3089C18.0451 25.2415 17.8788 25.2072 17.7068 25.2072C17.5142 25.2072 17.3302 25.2432 17.1559 25.3164C16.9811 25.3895 16.8251 25.5129 16.6874 25.6872C16.5491 25.8621 16.4411 26.0867 16.3634 26.3632C16.2856 26.6398 16.2434 26.9775 16.2382 27.3787C16.2434 27.7695 16.2839 28.1078 16.3594 28.3941C16.4348 28.6804 16.5388 28.9147 16.6719 29.0969C16.8051 29.2792 16.9559 29.4147 17.1251 29.5032C17.2942 29.5918 17.4725 29.6358 17.6605 29.6358C17.7176 29.6358 17.7942 29.6318 17.8908 29.6238C17.9868 29.6158 18.0834 29.6032 18.1799 29.5849C18.2759 29.5667 18.3685 29.5421 18.4571 29.5107C18.5456 29.4792 18.6108 29.4352 18.6525 29.3781V27.9564H17.6759V27.3158H19.5822V27.3169Z" fill="white"/>
<path d="M8.93922 24.5594H7.98418V28.3108C7.98418 28.9908 7.83902 29.3652 7.22015 29.3652C6.63949 29.3652 6.4714 29.0061 6.4714 28.3873V28.1046H5.51636V28.3949C5.51636 29.3958 5.99006 30.1445 7.14375 30.1445C8.71002 30.1445 8.93922 29.2048 8.93922 28.2574V24.5594Z" fill="white"/>
<path d="M7.81789 10.8565C9.25982 10.8565 10.4287 9.68756 10.4287 8.24562C10.4287 6.80369 9.25982 5.63477 7.81789 5.63477C6.37595 5.63477 5.20703 6.80369 5.20703 8.24562C5.20703 9.68756 6.37595 10.8565 7.81789 10.8565Z" fill="#F3D55B"/>
<path d="M0.714355 22.2864H7.00007H25.2858V16.0007L19.5715 10.5721L13.5715 17.1436L10.4384 14.0104L0.714355 22.2864Z" fill="#FF995F"/>
</svg>
