<svg width="19" height="20" viewBox="0 0 19 20" fill="none" xmlns="http://www.w3.org/2000/svg">
<path fill-rule="evenodd" clip-rule="evenodd" d="M5.7723 9.99997C5.7723 9.82023 5.8437 9.64786 5.9708 9.52076C6.09789 9.39366 6.27027 9.32226 6.45001 9.32226H16.3654L14.5934 7.80419C14.5258 7.74628 14.4702 7.67561 14.4299 7.59623C14.3895 7.51684 14.3652 7.43029 14.3584 7.34152C14.3515 7.25274 14.3621 7.16348 14.3898 7.07883C14.4174 6.99418 14.4614 6.9158 14.5193 6.84816C14.5772 6.78052 14.6479 6.72495 14.7273 6.68462C14.8066 6.64429 14.8932 6.61999 14.982 6.61311C15.0708 6.60623 15.16 6.6169 15.2447 6.64452C15.3293 6.67214 15.4077 6.71615 15.4753 6.77406L18.638 9.48491C18.7124 9.54854 18.7721 9.62752 18.8131 9.71644C18.854 9.80535 18.8752 9.90208 18.8752 9.99997C18.8752 10.0979 18.854 10.1946 18.8131 10.2835C18.7721 10.3724 18.7124 10.4514 18.638 10.515L15.4753 13.2259C15.3387 13.3428 15.1613 13.4007 14.982 13.3868C14.8027 13.3729 14.6363 13.2884 14.5193 13.1518C14.4024 13.0152 14.3445 12.8377 14.3584 12.6584C14.3723 12.4791 14.4568 12.3127 14.5934 12.1958L16.3645 10.6777H6.45001C6.27027 10.6777 6.09789 10.6063 5.9708 10.4792C5.8437 10.3521 5.7723 10.1797 5.7723 9.99997Z" fill="#5783EF"/>
<path d="M11.8718 6.38557C11.8718 7.01991 11.8718 7.33708 11.7191 7.56569C11.6533 7.66399 11.5689 7.74841 11.4706 7.81419C11.242 7.9669 10.9248 7.9669 10.2905 7.9669H6.45013C5.9109 7.9669 5.39377 8.1811 5.01248 8.56239C4.63119 8.94368 4.41699 9.46081 4.41699 10C4.41699 10.5393 4.63119 11.0564 5.01248 11.4377C5.39377 11.819 5.9109 12.0332 6.45013 12.0332H10.2905C10.9248 12.0332 11.242 12.0332 11.4706 12.185C11.569 12.251 11.6534 12.3358 11.7191 12.4344C11.8718 12.663 11.8718 12.9802 11.8718 13.6145C11.8718 16.1699 11.8718 17.4485 11.0775 18.2419C10.2842 19.0362 9.00646 19.0362 6.45103 19.0362H5.54741C2.99018 19.0362 1.71337 19.0362 0.919088 18.2419C0.124809 17.4485 0.124809 16.1699 0.124809 13.6145V6.38557C0.124809 3.83014 0.124809 2.55152 0.919088 1.75815C1.71337 0.963867 2.99108 0.963867 5.54651 0.963867H6.45013C9.00646 0.963867 10.2842 0.963867 11.0775 1.75815C11.8718 2.55152 11.8718 3.83014 11.8718 6.38557Z" fill="#5783EF"/>
</svg>
