<svg width="26" height="25" viewBox="0 0 26 25" fill="none" xmlns="http://www.w3.org/2000/svg">
<path d="M9.59091 0H2.77273C2.16996 0 1.59189 0.239447 1.16567 0.665666C0.739447 1.09189 0.5 1.66996 0.5 2.27273V9.09091C0.5 9.69367 0.739447 10.2718 1.16567 10.698C1.59189 11.1242 2.16996 11.3636 2.77273 11.3636H9.59091C10.1937 11.3636 10.7718 11.1242 11.198 10.698C11.6242 10.2718 11.8636 9.69367 11.8636 9.09091V2.27273C11.8636 1.66996 11.6242 1.09189 11.198 0.665666C10.7718 0.239447 10.1937 0 9.59091 0ZM9.59091 9.09091H2.77273V2.27273H9.59091V9.09091ZM9.59091 13.6364H2.77273C2.16996 13.6364 1.59189 13.8758 1.16567 14.302C0.739447 14.7282 0.5 15.3063 0.5 15.9091V22.7273C0.5 23.33 0.739447 23.9081 1.16567 24.3343C1.59189 24.7606 2.16996 25 2.77273 25H9.59091C10.1937 25 10.7718 24.7606 11.198 24.3343C11.6242 23.9081 11.8636 23.33 11.8636 22.7273V15.9091C11.8636 15.3063 11.6242 14.7282 11.198 14.302C10.7718 13.8758 10.1937 13.6364 9.59091 13.6364ZM9.59091 22.7273H2.77273V15.9091H9.59091V22.7273ZM23.2273 0H16.4091C15.8063 0 15.2282 0.239447 14.802 0.665666C14.3758 1.09189 14.1364 1.66996 14.1364 2.27273V9.09091C14.1364 9.69367 14.3758 10.2718 14.802 10.698C15.2282 11.1242 15.8063 11.3636 16.4091 11.3636H23.2273C23.83 11.3636 24.4081 11.1242 24.8343 10.698C25.2606 10.2718 25.5 9.69367 25.5 9.09091V2.27273C25.5 1.66996 25.2606 1.09189 24.8343 0.665666C24.4081 0.239447 23.83 0 23.2273 0ZM23.2273 9.09091H16.4091V2.27273H23.2273V9.09091ZM14.1364 19.3182V14.7727C14.1364 14.4713 14.2561 14.1823 14.4692 13.9692C14.6823 13.7561 14.9713 13.6364 15.2727 13.6364C15.5741 13.6364 15.8631 13.7561 16.0763 13.9692C16.2894 14.1823 16.4091 14.4713 16.4091 14.7727V19.3182C16.4091 19.6196 16.2894 19.9086 16.0763 20.1217C15.8631 20.3348 15.5741 20.4545 15.2727 20.4545C14.9713 20.4545 14.6823 20.3348 14.4692 20.1217C14.2561 19.9086 14.1364 19.6196 14.1364 19.3182ZM25.5 17.0455C25.5 17.3468 25.3803 17.6359 25.1672 17.849C24.9541 18.0621 24.665 18.1818 24.3636 18.1818H20.9545V23.8636C20.9545 24.165 20.8348 24.4541 20.6217 24.6672C20.4086 24.8803 20.1196 25 19.8182 25H15.2727C14.9713 25 14.6823 24.8803 14.4692 24.6672C14.2561 24.4541 14.1364 24.165 14.1364 23.8636C14.1364 23.5623 14.2561 23.2732 14.4692 23.0601C14.6823 22.847 14.9713 22.7273 15.2727 22.7273H18.6818V14.7727C18.6818 14.4713 18.8015 14.1823 19.0147 13.9692C19.2278 13.7561 19.5168 13.6364 19.8182 13.6364C20.1196 13.6364 20.4086 13.7561 20.6217 13.9692C20.8348 14.1823 20.9545 14.4713 20.9545 14.7727V15.9091H24.3636C24.665 15.9091 24.9541 16.0288 25.1672 16.2419C25.3803 16.455 25.5 16.7441 25.5 17.0455ZM25.5 21.5909V23.8636C25.5 24.165 25.3803 24.4541 25.1672 24.6672C24.9541 24.8803 24.665 25 24.3636 25C24.0623 25 23.7732 24.8803 23.5601 24.6672C23.347 24.4541 23.2273 24.165 23.2273 23.8636V21.5909C23.2273 21.2895 23.347 21.0005 23.5601 20.7874C23.7732 20.5743 24.0623 20.4545 24.3636 20.4545C24.665 20.4545 24.9541 20.5743 25.1672 20.7874C25.3803 21.0005 25.5 21.2895 25.5 21.5909Z" fill="white"/>
</svg>
