<svg width="25" height="25" viewBox="0 0 25 25" fill="none" xmlns="http://www.w3.org/2000/svg">
<g clip-path="url(#clip0_146_385)">
<circle cx="12.5" cy="14.1112" r="9.39024" fill="#4468C1"/>
<path d="M24.8559 19.9568V19.9569C24.8559 21.1758 24.3752 22.2842 23.5945 23.0995L24.8559 19.9568ZM24.8559 19.9568C24.8558 18.9013 24.4882 17.8787 23.8162 17.0647C23.1443 16.2506 22.2099 15.6959 21.1735 15.4957C20.1371 15.2956 19.0634 15.4624 18.1366 15.9677C17.2099 16.473 16.4879 17.2851 16.0947 18.2647C15.7015 19.2443 15.6616 20.3302 15.9819 21.336C16.3021 22.3418 16.9625 23.2047 17.8496 23.7766C18.7368 24.3486 19.7954 24.5938 20.8437 24.4702C21.8919 24.3467 22.8644 23.8621 23.5943 23.0997L24.8559 19.9568ZM9.23232 19.9568V19.9569C9.23232 21.1758 8.75161 22.2842 7.97087 23.0995L9.23232 19.9568ZM9.23232 19.9568C9.23218 18.9013 8.86459 17.8787 8.19264 17.0647C7.5207 16.2506 6.58632 15.6959 5.54993 15.4957C4.51353 15.2956 3.43979 15.4624 2.51303 15.9677C1.58628 16.473 0.864327 17.2851 0.471136 18.2647C0.0779444 19.2443 0.0380392 20.3302 0.358271 21.336C0.678503 22.3418 1.33889 23.2047 2.22607 23.7766C3.11324 24.3486 4.17184 24.5938 5.22013 24.4702C6.26833 24.3467 7.24083 23.8621 7.9707 23.0997L9.23232 19.9568ZM17.0441 5.04205V5.04217C17.0441 6.26102 16.5634 7.36943 15.7827 8.18475L17.0441 5.04205ZM17.0441 5.04205C17.044 3.9865 16.6764 2.96393 16.0044 2.14989C15.3325 1.33585 14.3981 0.78113 13.3617 0.580964C12.3253 0.380797 11.2516 0.547674 10.3248 1.05294C9.39806 1.55821 8.67612 2.37036 8.28293 3.34993C7.88974 4.32951 7.84983 5.41542 8.17006 6.42121C8.49029 7.42701 9.15069 8.28995 10.0379 8.86188C10.925 9.4338 11.9836 9.67904 13.0319 9.55548C14.0801 9.43193 15.0526 8.94736 15.7825 8.18494L17.0441 5.04205Z" fill="#4468C1" stroke="#F9FAFC" stroke-width="2" stroke-linecap="round" stroke-linejoin="round"/>
</g>
<defs>
<clipPath id="clip0_146_385">
<rect width="25" height="25" fill="white"/>
</clipPath>
</defs>
</svg>
