<svg width="25" height="25" viewBox="0 0 25 25" fill="none" xmlns="http://www.w3.org/2000/svg">
<path d="M11.5287 0.769584C12.1328 0.434004 12.8672 0.434003 13.4713 0.769584L22.5143 5.79347C23.1492 6.14621 23.543 6.81545 23.543 7.54179V17.4582C23.543 18.1845 23.1492 18.8537 22.5143 19.2065L13.4713 24.2304C12.8672 24.566 12.1328 24.566 11.5287 24.2304L2.48572 19.2065C1.85079 18.8537 1.457 18.1845 1.457 17.4582V7.54179C1.457 6.81545 1.85078 6.14621 2.48571 5.79347L11.5287 0.769584ZM12.5 15.8463C13.4249 15.8463 14.3119 15.4938 14.9659 14.8662C15.6199 14.2386 15.9873 13.3875 15.9873 12.5C15.9873 11.6125 15.6199 10.7613 14.9659 10.1337C14.3119 9.50618 13.4249 9.15361 12.5 9.15361C11.5751 9.15361 10.6881 9.50618 10.0341 10.1337C9.38014 10.7613 9.01273 11.6125 9.01273 12.5C9.01273 13.3875 9.38014 14.2386 10.0341 14.8662C10.6881 15.4938 11.5751 15.8463 12.5 15.8463Z" fill="#4468C1"/>
</svg>
